<?xml version="1.0" encoding="UTF-8"?>
<!DOCTYPE svg PUBLIC "-//W3C//DTD SVG 1.1//EN" "http://www.w3.org/Graphics/SVG/1.1/DTD/svg11.dtd">
<svg xmlns="http://www.w3.org/2000/svg" version="1.1" width="3261px" height="2756px" style="shape-rendering:geometricPrecision; text-rendering:geometricPrecision; image-rendering:optimizeQuality; fill-rule:evenodd; clip-rule:evenodd" xmlns:xlink="http://www.w3.org/1999/xlink">
<g><path style="opacity:0.998" fill="#500d75" d="M 1580.5,528.5 C 1581.46,528.047 1582.29,527.381 1583,526.5C 1583.5,436.167 1583.67,345.834 1583.5,255.5C 1583.18,253.952 1582.18,253.285 1580.5,253.5C 1580.5,252.5 1580.5,251.5 1580.5,250.5C 1609.17,250.5 1637.83,250.5 1666.5,250.5C 1666.5,344.833 1666.5,439.167 1666.5,533.5C 1637.83,533.5 1609.17,533.5 1580.5,533.5C 1580.5,531.833 1580.5,530.167 1580.5,528.5 Z"/></g>
<g><path style="opacity:0.254" fill="#540b76" d="M 1580.5,253.5 C 1582.18,253.285 1583.18,253.952 1583.5,255.5C 1582.88,255.611 1582.38,255.944 1582,256.5C 1581.83,346.668 1581.33,436.668 1580.5,526.5C 1580.5,435.5 1580.5,344.5 1580.5,253.5 Z"/></g>
<g><path style="opacity:0.997" fill="#520d73" d="M 1583.5,255.5 C 1583.67,345.834 1583.5,436.167 1583,526.5C 1582.29,527.381 1581.46,528.047 1580.5,528.5C 1580.5,527.833 1580.5,527.167 1580.5,526.5C 1581.33,436.668 1581.83,346.668 1582,256.5C 1582.38,255.944 1582.88,255.611 1583.5,255.5 Z"/></g>
<g><path style="opacity:0.986" fill="#500d75" d="M 1418.5,391.5 C 1447.17,391.5 1475.83,391.5 1504.5,391.5C 1504.5,438.833 1504.5,486.167 1504.5,533.5C 1475.83,533.5 1447.17,533.5 1418.5,533.5C 1418.5,486.167 1418.5,438.833 1418.5,391.5 Z"/></g>
<g><path style="opacity:0.985" fill="#500d75" d="M 1742.5,391.5 C 1771.17,391.5 1799.83,391.5 1828.5,391.5C 1828.5,438.833 1828.5,486.167 1828.5,533.5C 1799.83,533.5 1771.17,533.5 1742.5,533.5C 1742.5,486.167 1742.5,438.833 1742.5,391.5 Z"/></g>
<g><path style="opacity:1" fill="#530c74" d="M 1599.5,527.5 C 1620.5,527.5 1641.5,527.5 1662.5,527.5C 1662.5,528.5 1662.5,529.5 1662.5,530.5C 1643.16,530.667 1623.83,530.5 1604.5,530C 1602.26,529.95 1600.59,529.117 1599.5,527.5 Z"/></g>
<g><path style="opacity:1" fill="#500d75" d="M 1200.5,609.5 C 1482.5,609.5 1764.5,609.5 2046.5,609.5C 2046.5,638.167 2046.5,666.833 2046.5,695.5C 1764.5,695.5 1482.5,695.5 1200.5,695.5C 1200.5,666.833 1200.5,638.167 1200.5,609.5 Z"/></g>
<g><path style="opacity:0.251" fill="#471563" d="M 1059.5,771.5 C 1435.5,771.5 1811.5,771.5 2187.5,771.5C 2187.5,800.167 2187.5,828.833 2187.5,857.5C 1811.5,857.5 1435.5,857.5 1059.5,857.5C 1059.5,828.833 1059.5,800.167 1059.5,771.5 Z"/></g>
<g><path style="opacity:1" fill="#500d75" d="M 1060.5,772.5 C 1435.83,772.5 1811.17,772.5 2186.5,772.5C 2186.5,800.5 2186.5,828.5 2186.5,856.5C 1811.17,856.5 1435.83,856.5 1060.5,856.5C 1060.5,828.5 1060.5,800.5 1060.5,772.5 Z"/></g>
<g><path style="opacity:0.999" fill="#500d75" d="M 2046.5,1015.5 C 1770.83,1015.17 1495.17,1015.5 1219.5,1016.5C 1495.17,1017.5 1770.83,1017.83 2046.5,1017.5C 1764.84,1019.5 1482.84,1020.17 1200.5,1019.5C 1200.5,990.833 1200.5,962.167 1200.5,933.5C 1482.5,933.5 1764.5,933.5 2046.5,933.5C 2046.5,960.833 2046.5,988.167 2046.5,1015.5 Z"/></g>
<g><path style="opacity:1" fill="#500d78" d="M 2046.5,1015.5 C 2046.5,1016.17 2046.5,1016.83 2046.5,1017.5C 1770.83,1017.83 1495.17,1017.5 1219.5,1016.5C 1495.17,1015.5 1770.83,1015.17 2046.5,1015.5 Z"/></g>
<g><path style="opacity:0.986" fill="#500d75" d="M 1418.5,1095.5 C 1447.17,1095.5 1475.83,1095.5 1504.5,1095.5C 1504.5,1142.83 1504.5,1190.17 1504.5,1237.5C 1475.83,1237.5 1447.17,1237.5 1418.5,1237.5C 1418.5,1190.17 1418.5,1142.83 1418.5,1095.5 Z"/></g>
<g><path style="opacity:0.991" fill="#500d75" d="M 1580.5,1096.5 C 1608.17,1096.5 1635.83,1096.5 1663.5,1096.5C 1663.48,1189.01 1663.48,1281.68 1663.5,1374.5C 1664.5,1374.5 1665.5,1374.5 1666.5,1374.5C 1666.5,1375.83 1666.5,1377.17 1666.5,1378.5C 1637.83,1378.5 1609.17,1378.5 1580.5,1378.5C 1580.5,1284.5 1580.5,1190.5 1580.5,1096.5 Z"/></g>
<g><path style="opacity:0.834" fill="#510d72" d="M 1580.5,1096.5 C 1609,1095.5 1637.66,1095.17 1666.5,1095.5C 1666.5,1188.5 1666.5,1281.5 1666.5,1374.5C 1665.5,1374.5 1664.5,1374.5 1663.5,1374.5C 1663.48,1281.68 1663.48,1189.01 1663.5,1096.5C 1635.83,1096.5 1608.17,1096.5 1580.5,1096.5 Z"/></g>
<g><path style="opacity:0.986" fill="#500d75" d="M 1742.5,1095.5 C 1771.17,1095.5 1799.83,1095.5 1828.5,1095.5C 1828.5,1142.83 1828.5,1190.17 1828.5,1237.5C 1799.83,1237.5 1771.17,1237.5 1742.5,1237.5C 1742.5,1190.17 1742.5,1142.83 1742.5,1095.5 Z"/></g>
<g><path style="opacity:0.998" fill="#500d75" d="M 1114.5,1842.5 C 1113.08,1840.69 1111.08,1840.03 1108.5,1840.5C 1059.57,1835.93 1028.41,1857.27 1015,1904.5C 1008.29,1934.89 1013.62,1962.89 1031,1988.5C 1056.45,2017.66 1087.61,2025.82 1124.5,2013C 1128.86,2010.82 1133.19,2008.65 1137.5,2006.5C 1139.18,2006.71 1140.18,2006.05 1140.5,2004.5C 1149.3,1998.09 1157.3,1990.76 1164.5,1982.5C 1165.59,1984.56 1167.43,1985.56 1170,1985.5C 1171.5,1985.17 1173,1984.83 1174.5,1984.5C 1171.58,1983.55 1168.91,1982.22 1166.5,1980.5C 1166.51,1978.31 1167.51,1977.48 1169.5,1978C 1192.97,1994.64 1216.31,2011.47 1239.5,2028.5C 1201.28,2083.11 1148.61,2108.61 1081.5,2105C 1023.17,2102.04 977.503,2076.87 944.5,2029.5C 944.014,2026.29 943.014,2023.29 941.5,2020.5C 940.5,2020.5 939.5,2020.5 938.5,2020.5C 914.307,1976.23 908.474,1929.56 921,1880.5C 939.258,1820.58 978.091,1780.74 1037.5,1761C 1068.13,1753 1099.13,1751.33 1130.5,1756C 1175.39,1764.09 1210.72,1786.76 1236.5,1824C 1213.58,1842.92 1190.08,1861.09 1166,1878.5C 1158.2,1870.37 1150.04,1862.54 1141.5,1855C 1133.25,1849.21 1124.25,1845.04 1114.5,1842.5 Z"/></g>
<g><path style="opacity:0.998" fill="#500d75" d="M 2810.5,1756.5 C 2811.92,1758.31 2813.92,1758.97 2816.5,1758.5C 2837.42,1762.8 2856.76,1770.8 2874.5,1782.5C 2874.82,1784.05 2875.82,1784.71 2877.5,1784.5C 2930.4,1822.3 2955.57,1873.97 2953,1939.5C 2951.77,1960.73 2946.94,1981.07 2938.5,2000.5C 2936.95,2000.82 2936.29,2001.82 2936.5,2003.5C 2925.77,2027.91 2909.77,2048.24 2888.5,2064.5C 2884.76,2063.19 2884.09,2063.85 2886.5,2066.5C 2873.74,2076.55 2859.74,2084.55 2844.5,2090.5C 2840.68,2086.32 2839.35,2086.99 2840.5,2092.5C 2785.07,2112.18 2731.07,2108.85 2678.5,2082.5C 2679.72,2081.84 2681.05,2081.17 2682.5,2080.5C 2680.23,2079.64 2677.9,2079.64 2675.5,2080.5C 2642.79,2061.62 2618.62,2034.95 2603,2000.5C 2599.06,1991.83 2596.22,1982.83 2594.5,1973.5C 2594.92,1971.22 2594.26,1969.55 2592.5,1968.5C 2592.5,1967.5 2592.5,1966.5 2592.5,1965.5C 2593.01,1962.61 2592.34,1960.28 2590.5,1958.5C 2587.45,1935.72 2588.12,1913.05 2592.5,1890.5C 2594.01,1889.5 2595.68,1888.83 2597.5,1888.5C 2597.42,1887.07 2597.75,1885.74 2598.5,1884.5C 2597.62,1883.45 2596.95,1882.29 2596.5,1881C 2598,1879.67 2599.33,1878.17 2600.5,1876.5C 2599.87,1873.2 2599.87,1869.87 2600.5,1866.5C 2600.6,1864.3 2601.27,1862.3 2602.5,1860.5C 2604.18,1859.82 2604.84,1858.48 2604.5,1856.5C 2622.05,1818.95 2649.39,1790.95 2686.5,1772.5C 2688.48,1772.84 2689.82,1772.18 2690.5,1770.5C 2701.92,1764.79 2713.92,1760.79 2726.5,1758.5C 2729.08,1758.97 2731.08,1758.31 2732.5,1756.5C 2735.81,1755.95 2739.14,1755.62 2742.5,1755.5C 2765.07,1752.66 2787.74,1753 2810.5,1756.5 Z M 2854.5,1953.5 C 2853.19,1957.09 2851.86,1960.75 2850.5,1964.5C 2833.54,2003.83 2803.54,2021.99 2760.5,2019C 2755.82,2018.16 2751.15,2017.33 2746.5,2016.5C 2745.33,2015.66 2744,2014.99 2742.5,2014.5C 2708.59,2000.07 2689.76,1974.4 2686,1937.5C 2683.35,1900.3 2697.19,1871.14 2727.5,1850C 2765.73,1831.03 2800.56,1835.87 2832,1864.5C 2853.73,1890.41 2861.23,1920.08 2854.5,1953.5 Z"/></g>
<g><path style="opacity:1" fill="#510c78" d="M 2742.5,1755.5 C 2761.5,1755.33 2780.5,1755.5 2799.5,1756C 2800.17,1757 2800.83,1758 2801.5,1759C 2782.58,1758.69 2763.58,1758.36 2744.5,1758C 2743.24,1757.58 2742.58,1756.75 2742.5,1755.5 Z"/></g>
<g><path style="opacity:0.876" fill="#461567" d="M 2732.5,1756.5 C 2731.08,1758.31 2729.08,1758.97 2726.5,1758.5C 2728.37,1757.71 2730.37,1757.05 2732.5,1756.5 Z"/></g>
<g><path style="opacity:0.816" fill="#491366" d="M 2810.5,1756.5 C 2812.63,1757.05 2814.63,1757.71 2816.5,1758.5C 2813.92,1758.97 2811.92,1758.31 2810.5,1756.5 Z"/></g>
<g><path style="opacity:0.251" fill="#481563" d="M 1316.5,1760.5 C 1407.33,1759.5 1498.33,1759.17 1589.5,1759.5C 1589.83,1786.67 1589.5,1813.67 1588.5,1840.5C 1588.5,1813.83 1588.5,1787.17 1588.5,1760.5C 1497.83,1760.5 1407.17,1760.5 1316.5,1760.5 Z"/></g>
<g><path style="opacity:0.251" fill="#481563" d="M 2330.5,1760.5 C 2234.83,1760.5 2139.17,1760.5 2043.5,1760.5C 2042.17,1760.5 2040.83,1760.5 2039.5,1760.5C 2037.83,1760.5 2036.17,1760.5 2034.5,1760.5C 2034.5,1787.83 2034.5,1815.17 2034.5,1842.5C 2033.5,1815.01 2033.17,1787.34 2033.5,1759.5C 2132.67,1759.17 2231.67,1759.5 2330.5,1760.5 Z"/></g>
<g><path style="opacity:1" fill="#500d75" d="M 308.5,1760.5 C 337.5,1760.5 366.5,1760.5 395.5,1760.5C 395.5,1762.83 395.5,1765.17 395.5,1767.5C 396.833,1767.5 398.167,1767.5 399.5,1767.5C 399.5,1876.5 399.5,1985.5 399.5,2094.5C 400.5,2094.5 401.5,2094.5 402.5,2094.5C 402.5,2095.83 402.5,2097.17 402.5,2098.5C 401.167,2098.5 399.833,2098.5 398.5,2098.5C 398.5,2097.5 398.5,2096.5 398.5,2095.5C 371.165,2095.33 343.831,2095.5 316.5,2096C 314.563,2096.12 313.23,2096.95 312.5,2098.5C 311.167,2098.5 309.833,2098.5 308.5,2098.5C 308.5,1985.83 308.5,1873.17 308.5,1760.5 Z"/></g>
<g><path style="opacity:1" fill="#520c74" d="M 395.5,1760.5 C 397.833,1760.5 400.167,1760.5 402.5,1760.5C 402.5,1871.83 402.5,1983.17 402.5,2094.5C 401.5,2094.5 400.5,2094.5 399.5,2094.5C 399.5,1985.5 399.5,1876.5 399.5,1767.5C 398.167,1767.5 396.833,1767.5 395.5,1767.5C 395.5,1765.17 395.5,1762.83 395.5,1760.5 Z"/></g>
<g><path style="opacity:0.251" fill="#481563" d="M 308.5,1760.5 C 339.996,1759.5 371.662,1759.17 403.5,1759.5C 403.833,1872.67 403.5,1985.67 402.5,2098.5C 402.5,2097.17 402.5,2095.83 402.5,2094.5C 402.5,1983.17 402.5,1871.83 402.5,1760.5C 400.167,1760.5 397.833,1760.5 395.5,1760.5C 366.5,1760.5 337.5,1760.5 308.5,1760.5 Z"/></g>
<g><path style="opacity:0.993" fill="#500d75" d="M 823.5,2098.5 C 823.5,2098.17 823.5,2097.83 823.5,2097.5C 796.653,2095.17 769.653,2094.84 742.5,2096.5C 695.197,2036.35 648.03,1976.02 601,1915.5C 600.5,1976.5 600.333,2037.5 600.5,2098.5C 569.167,2098.5 537.833,2098.5 506.5,2098.5C 506.5,1985.5 506.5,1872.5 506.5,1759.5C 536.174,1759.17 565.841,1759.5 595.5,1760.5C 640.809,1818.98 686.309,1877.31 732,1935.5C 732.5,1876.83 732.667,1818.17 732.5,1759.5C 763.833,1759.5 795.167,1759.5 826.5,1759.5C 826.5,1872.5 826.5,1985.5 826.5,2098.5C 825.5,2098.5 824.5,2098.5 823.5,2098.5 Z"/></g>
<g><path style="opacity:0.991" fill="#500d75" d="M 1316.5,1760.5 C 1407.17,1760.5 1497.83,1760.5 1588.5,1760.5C 1588.5,1787.17 1588.5,1813.83 1588.5,1840.5C 1497.83,1840.5 1407.17,1840.5 1316.5,1840.5C 1316.5,1813.83 1316.5,1787.17 1316.5,1760.5 Z"/></g>
<g><path style="opacity:0.251" fill="#461662" d="M 1841.5,1760.5 C 1789.83,1760.5 1738.17,1760.5 1686.5,1760.5C 1686.5,1873.17 1686.5,1985.83 1686.5,2098.5C 1685.5,1985.67 1685.17,1872.67 1685.5,1759.5C 1737.67,1759.17 1789.67,1759.5 1841.5,1760.5 Z"/></g>
<g><path style="opacity:0.998" fill="#500d75" d="M 1841.5,1760.5 C 1867.46,1760.42 1891.8,1766.42 1914.5,1778.5C 1914.82,1780.05 1915.82,1780.71 1917.5,1780.5C 1946.9,1796.91 1964.23,1821.91 1969.5,1855.5C 1967.94,1863.72 1967.27,1872.05 1967.5,1880.5C 1967.66,1889.84 1967.99,1899.18 1968.5,1908.5C 1960.62,1945.55 1939.29,1971.72 1904.5,1987C 1889.1,1993.52 1873.1,1997.85 1856.5,2000C 1831.2,2001.41 1805.86,2001.91 1780.5,2001.5C 1780.5,2033.83 1780.5,2066.17 1780.5,2098.5C 1778.83,2098.5 1777.17,2098.5 1775.5,2098.5C 1775.2,2097.85 1774.86,2097.18 1774.5,2096.5C 1748.18,2095.5 1721.84,2095.17 1695.5,2095.5C 1695.5,2083.5 1695.5,2071.5 1695.5,2059.5C 1693.17,2059.5 1690.83,2059.5 1688.5,2059.5C 1688.44,2072.65 1688.44,2085.65 1688.5,2098.5C 1687.83,2098.5 1687.17,2098.5 1686.5,2098.5C 1686.5,1985.83 1686.5,1873.17 1686.5,1760.5C 1738.17,1760.5 1789.83,1760.5 1841.5,1760.5 Z M 1869.5,1856.5 C 1870.11,1858.43 1871.11,1860.1 1872.5,1861.5C 1877.01,1872.09 1878.35,1883.09 1876.5,1894.5C 1875.27,1897.33 1874.27,1900.33 1873.5,1903.5C 1864.35,1917.42 1851.35,1925.26 1834.5,1927C 1816.5,1927.5 1798.5,1927.67 1780.5,1927.5C 1780.5,1898.17 1780.5,1868.83 1780.5,1839.5C 1800.54,1839.07 1820.54,1839.57 1840.5,1841C 1851.92,1843.04 1861.59,1848.21 1869.5,1856.5 Z"/></g>
<g><path style="opacity:1" fill="#4f0e75" d="M 2039.5,1760.5 C 2039.67,1786.84 2039.5,1813.17 2039,1839.5C 2038.49,1840.53 2037.99,1841.53 2037.5,1842.5C 2036.5,1842.5 2035.5,1842.5 2034.5,1842.5C 2034.5,1815.17 2034.5,1787.83 2034.5,1760.5C 2036.17,1760.5 2037.83,1760.5 2039.5,1760.5 Z"/></g>
<g><path style="opacity:1" fill="#520c75" d="M 2039.5,1760.5 C 2040.83,1760.5 2042.17,1760.5 2043.5,1760.5C 2043.5,1762.83 2043.5,1765.17 2043.5,1767.5C 2046.83,1767.5 2050.17,1767.5 2053.5,1767.5C 2052.83,1770.17 2052.17,1772.83 2051.5,1775.5C 2048.83,1775.5 2046.17,1775.5 2043.5,1775.5C 2043.5,1791.5 2043.5,1807.5 2043.5,1823.5C 2044.83,1823.5 2046.17,1823.5 2047.5,1823.5C 2047.5,1828.83 2047.5,1834.17 2047.5,1839.5C 2076.83,1839.5 2106.17,1839.5 2135.5,1839.5C 2135.5,1840.5 2135.5,1841.5 2135.5,1842.5C 2102.83,1842.5 2070.17,1842.5 2037.5,1842.5C 2037.99,1841.53 2038.49,1840.53 2039,1839.5C 2039.5,1813.17 2039.67,1786.84 2039.5,1760.5 Z"/></g>
<g><path style="opacity:1" fill="#500d75" d="M 2043.5,1760.5 C 2139.17,1760.5 2234.83,1760.5 2330.5,1760.5C 2330.5,1787.83 2330.5,1815.17 2330.5,1842.5C 2329.5,1842.5 2328.5,1842.5 2327.5,1842.5C 2327.2,1841.85 2326.86,1841.18 2326.5,1840.5C 2296.17,1839.17 2265.83,1839.17 2235.5,1840.5C 2235.14,1841.18 2234.8,1841.85 2234.5,1842.5C 2232.83,1842.5 2231.17,1842.5 2229.5,1842.5C 2229.5,1927.83 2229.5,2013.17 2229.5,2098.5C 2227.5,2098.5 2225.5,2098.5 2223.5,2098.5C 2223.2,2097.85 2222.86,2097.18 2222.5,2096.5C 2193.84,2095.5 2165.17,2095.17 2136.5,2095.5C 2136.83,2011.33 2136.5,1927.33 2135.5,1843.5C 2135.5,1843.17 2135.5,1842.83 2135.5,1842.5C 2135.5,1841.5 2135.5,1840.5 2135.5,1839.5C 2106.17,1839.5 2076.83,1839.5 2047.5,1839.5C 2047.5,1834.17 2047.5,1828.83 2047.5,1823.5C 2046.17,1823.5 2044.83,1823.5 2043.5,1823.5C 2043.5,1807.5 2043.5,1791.5 2043.5,1775.5C 2046.17,1775.5 2048.83,1775.5 2051.5,1775.5C 2052.17,1772.83 2052.83,1770.17 2053.5,1767.5C 2050.17,1767.5 2046.83,1767.5 2043.5,1767.5C 2043.5,1765.17 2043.5,1762.83 2043.5,1760.5 Z"/></g>
<g><path style="opacity:0.502" fill="#461662" d="M 2500.5,1760.5 C 2469.17,1760.5 2437.83,1760.5 2406.5,1760.5C 2406.5,1873.17 2406.5,1985.83 2406.5,2098.5C 2405.5,1985.67 2405.17,1872.67 2405.5,1759.5C 2437.34,1759.17 2469,1759.5 2500.5,1760.5 Z"/></g>
<g><path style="opacity:0.997" fill="#500d75" d="M 2500.5,1760.5 C 2500.5,1873.17 2500.5,1985.83 2500.5,2098.5C 2499.5,2098.5 2498.5,2098.5 2497.5,2098.5C 2497.05,2097.54 2496.38,2096.71 2495.5,2096C 2468.84,2095.5 2442.17,2095.33 2415.5,2095.5C 2415.5,2094.17 2415.5,2092.83 2415.5,2091.5C 2413.17,2091.5 2410.83,2091.5 2408.5,2091.5C 2407.93,2093.97 2407.93,2096.3 2408.5,2098.5C 2407.83,2098.5 2407.17,2098.5 2406.5,2098.5C 2406.5,1985.83 2406.5,1873.17 2406.5,1760.5C 2437.83,1760.5 2469.17,1760.5 2500.5,1760.5 Z"/></g>
<g><path style="opacity:1" fill="#481468" d="M 2690.5,1770.5 C 2689.82,1772.18 2688.48,1772.84 2686.5,1772.5C 2687.67,1771.66 2689,1770.99 2690.5,1770.5 Z"/></g>
<g><path style="opacity:1" fill="#4e0e78" d="M 823.5,2097.5 C 823.167,1991.5 823.5,1885.5 824.5,1779.5C 824.833,1832.5 825.167,1885.5 825.5,1938.5C 825.5,1991.84 824.833,2044.84 823.5,2097.5 Z"/></g>
<g><path style="opacity:0.314" fill="#4d1167" d="M 1914.5,1778.5 C 1915.71,1778.93 1916.71,1779.6 1917.5,1780.5C 1915.82,1780.71 1914.82,1780.05 1914.5,1778.5 Z"/></g>
<g><path style="opacity:0.063" fill="#4b1367" d="M 2874.5,1782.5 C 2875.71,1782.93 2876.71,1783.6 2877.5,1784.5C 2875.82,1784.71 2874.82,1784.05 2874.5,1782.5 Z"/></g>
<g><path style="opacity:1" fill="#510d74" d="M 2327.5,1842.5 C 2296.5,1842.5 2265.5,1842.5 2234.5,1842.5C 2234.8,1841.85 2235.14,1841.18 2235.5,1840.5C 2265.83,1839.17 2296.17,1839.17 2326.5,1840.5C 2326.86,1841.18 2327.2,1841.85 2327.5,1842.5 Z"/></g>
<g><path style="opacity:0.941" fill="#471565" d="M 1108.5,1840.5 C 1111.08,1840.03 1113.08,1840.69 1114.5,1842.5C 1112.37,1841.95 1110.37,1841.29 1108.5,1840.5 Z"/></g>
<g><path style="opacity:0.971" fill="#4e106c" d="M 1869.5,1856.5 C 1871.74,1857.3 1872.74,1858.97 1872.5,1861.5C 1871.11,1860.1 1870.11,1858.43 1869.5,1856.5 Z"/></g>
<g><path style="opacity:1" fill="#500e70" d="M 1969.5,1855.5 C 1971,1863.28 1971.67,1871.28 1971.5,1879.5C 1971.9,1889.46 1970.9,1899.13 1968.5,1908.5C 1967.99,1899.18 1967.66,1889.84 1967.5,1880.5C 1967.27,1872.05 1967.94,1863.72 1969.5,1855.5 Z"/></g>
<g><path style="opacity:1" fill="#481369" d="M 2604.5,1856.5 C 2604.84,1858.48 2604.18,1859.82 2602.5,1860.5C 2602.99,1859 2603.66,1857.67 2604.5,1856.5 Z"/></g>
<g><path style="opacity:0.971" fill="#4d106f" d="M 2600.5,1866.5 C 2599.87,1869.87 2599.87,1873.2 2600.5,1876.5C 2599.33,1878.17 2598,1879.67 2596.5,1881C 2596.95,1882.29 2597.62,1883.45 2598.5,1884.5C 2597.75,1885.74 2597.42,1887.07 2597.5,1888.5C 2595.68,1888.83 2594.01,1889.5 2592.5,1890.5C 2594.59,1882.22 2597.26,1874.22 2600.5,1866.5 Z"/></g>
<g><path style="opacity:0.251" fill="#481563" d="M 1316.5,1888.5 C 1407.33,1887.5 1498.33,1887.17 1589.5,1887.5C 1589.83,1914.67 1589.5,1941.67 1588.5,1968.5C 1588.5,1941.83 1588.5,1915.17 1588.5,1888.5C 1497.83,1888.5 1407.17,1888.5 1316.5,1888.5 Z"/></g>
<g><path style="opacity:0.991" fill="#500d75" d="M 1316.5,1888.5 C 1407.17,1888.5 1497.83,1888.5 1588.5,1888.5C 1588.5,1915.17 1588.5,1941.83 1588.5,1968.5C 1497.83,1968.5 1407.17,1968.5 1316.5,1968.5C 1316.5,1941.83 1316.5,1915.17 1316.5,1888.5 Z"/></g>
<g><path style="opacity:1" fill="#4e106d" d="M 1876.5,1894.5 C 1876.5,1895.83 1876.5,1897.17 1876.5,1898.5C 1877.55,1898.35 1878.55,1898.52 1879.5,1899C 1878.23,1900.31 1877.23,1901.81 1876.5,1903.5C 1875.81,1902.97 1875.31,1902.31 1875,1901.5C 1874.72,1902.42 1874.22,1903.08 1873.5,1903.5C 1874.27,1900.33 1875.27,1897.33 1876.5,1894.5 Z"/></g>
<g><path style="opacity:0.889" fill="#4d116d" d="M 2854.5,1953.5 C 2855.04,1953.56 2855.38,1953.89 2855.5,1954.5C 2854.83,1958.51 2853.16,1961.85 2850.5,1964.5C 2851.86,1960.75 2853.19,1957.09 2854.5,1953.5 Z"/></g>
<g><path style="opacity:0.522" fill="#491466" d="M 2590.5,1958.5 C 2592.34,1960.28 2593.01,1962.61 2592.5,1965.5C 2591.73,1963.29 2591.07,1960.95 2590.5,1958.5 Z"/></g>
<g><path style="opacity:0.502" fill="#491369" d="M 2592.5,1968.5 C 2594.26,1969.55 2594.92,1971.22 2594.5,1973.5C 2593.69,1971.97 2593.02,1970.31 2592.5,1968.5 Z"/></g>
<g><path style="opacity:1" fill="#4f0d79" d="M 1166.5,1980.5 C 1168.91,1982.22 1171.58,1983.55 1174.5,1984.5C 1173,1984.83 1171.5,1985.17 1170,1985.5C 1167.43,1985.56 1165.59,1984.56 1164.5,1982.5C 1164.83,1981.5 1165.5,1980.83 1166.5,1980.5 Z"/></g>
<g><path style="opacity:0.376" fill="#491467" d="M 2938.5,2000.5 C 2938.07,2001.71 2937.4,2002.71 2936.5,2003.5C 2936.29,2001.82 2936.95,2000.82 2938.5,2000.5 Z"/></g>
<g><path style="opacity:1" fill="#45156a" d="M 1140.5,2004.5 C 1140.18,2006.05 1139.18,2006.71 1137.5,2006.5C 1138.29,2005.6 1139.29,2004.93 1140.5,2004.5 Z"/></g>
<g><path style="opacity:0.481" fill="#4a1367" d="M 2742.5,2014.5 C 2744,2014.99 2745.33,2015.66 2746.5,2016.5C 2744.52,2016.84 2743.18,2016.18 2742.5,2014.5 Z"/></g>
<g><path style="opacity:0.988" fill="#500d75" d="M 1588.5,2016.5 C 1588.5,2043.17 1588.5,2069.83 1588.5,2096.5C 1497.83,2096.5 1407.17,2096.5 1316.5,2096.5C 1316.5,2069.83 1316.5,2043.17 1316.5,2016.5C 1407.17,2016.5 1497.83,2016.5 1588.5,2016.5 Z"/></g>
<g><path style="opacity:0.888" fill="#4e106f" d="M 938.5,2020.5 C 939.5,2020.5 940.5,2020.5 941.5,2020.5C 943.014,2023.29 944.014,2026.29 944.5,2029.5C 942.265,2026.71 940.265,2023.71 938.5,2020.5 Z"/></g>
<g><path style="opacity:0.916" fill="#520c74" d="M 1775.5,2098.5 C 1746.5,2098.5 1717.5,2098.5 1688.5,2098.5C 1688.44,2085.65 1688.44,2072.65 1688.5,2059.5C 1690.83,2059.5 1693.17,2059.5 1695.5,2059.5C 1695.5,2071.5 1695.5,2083.5 1695.5,2095.5C 1721.84,2095.17 1748.18,2095.5 1774.5,2096.5C 1774.86,2097.18 1775.2,2097.85 1775.5,2098.5 Z"/></g>
<g><path style="opacity:1" fill="#4f106c" d="M 2888.5,2064.5 C 2888.17,2065.5 2887.5,2066.17 2886.5,2066.5C 2884.09,2063.85 2884.76,2063.19 2888.5,2064.5 Z"/></g>
<g><path style="opacity:1" fill="#4d116c" d="M 2678.5,2082.5 C 2677.29,2082.07 2676.29,2081.4 2675.5,2080.5C 2677.9,2079.64 2680.23,2079.64 2682.5,2080.5C 2681.05,2081.17 2679.72,2081.84 2678.5,2082.5 Z"/></g>
<g><path style="opacity:1" fill="#510f6b" d="M 2844.5,2090.5 C 2843.33,2091.34 2842,2092.01 2840.5,2092.5C 2839.35,2086.99 2840.68,2086.32 2844.5,2090.5 Z"/></g>
<g><path style="opacity:0.852" fill="#520c74" d="M 2497.5,2098.5 C 2467.83,2098.5 2438.17,2098.5 2408.5,2098.5C 2407.93,2096.3 2407.93,2093.97 2408.5,2091.5C 2410.83,2091.5 2413.17,2091.5 2415.5,2091.5C 2415.5,2092.83 2415.5,2094.17 2415.5,2095.5C 2442.17,2095.33 2468.84,2095.5 2495.5,2096C 2496.38,2096.71 2497.05,2097.54 2497.5,2098.5 Z"/></g>
<g><path style="opacity:0.831" fill="#510d74" d="M 398.5,2098.5 C 369.833,2098.5 341.167,2098.5 312.5,2098.5C 313.23,2096.95 314.563,2096.12 316.5,2096C 343.831,2095.5 371.165,2095.33 398.5,2095.5C 398.5,2096.5 398.5,2097.5 398.5,2098.5 Z"/></g>
<g><path style="opacity:0.833" fill="#510d73" d="M 823.5,2097.5 C 823.5,2097.83 823.5,2098.17 823.5,2098.5C 796.831,2098.67 770.165,2098.5 743.5,2098C 742.944,2097.62 742.611,2097.12 742.5,2096.5C 769.653,2094.84 796.653,2095.17 823.5,2097.5 Z"/></g>
<g><path style="opacity:0.833" fill="#4f106e" d="M 2135.5,1843.5 C 2136.5,1927.33 2136.83,2011.33 2136.5,2095.5C 2165.17,2095.17 2193.84,2095.5 2222.5,2096.5C 2222.86,2097.18 2223.2,2097.85 2223.5,2098.5C 2194.17,2098.5 2164.83,2098.5 2135.5,2098.5C 2135.5,2013.5 2135.5,1928.5 2135.5,1843.5 Z"/></g>
<g><path style="opacity:0.753" fill="#461662" d="M 1588.5,2016.5 C 1589.5,2043.33 1589.83,2070.33 1589.5,2097.5C 1498.33,2097.83 1407.33,2097.5 1316.5,2096.5C 1407.17,2096.5 1497.83,2096.5 1588.5,2096.5C 1588.5,2069.83 1588.5,2043.17 1588.5,2016.5 Z"/></g>
<g><path style="opacity:0.997" fill="#500d75" d="M 860.5,2350.5 C 858.952,2350.82 858.285,2351.82 858.5,2353.5C 848.657,2375.84 849.323,2397.84 860.5,2419.5C 860.285,2421.18 860.952,2422.18 862.5,2422.5C 881.117,2445.66 904.451,2451.66 932.5,2440.5C 933.583,2440.46 934.583,2440.13 935.5,2439.5C 936.731,2440.65 936.731,2441.82 935.5,2443C 936.167,2443.67 936.833,2444.33 937.5,2445C 935.616,2445.22 933.949,2445.88 932.5,2447C 934.81,2447.5 937.143,2447.66 939.5,2447.5C 938.789,2440.16 942.122,2437.49 949.5,2439.5C 949.677,2435.77 949.344,2432.1 948.5,2428.5C 951.831,2425 954.998,2421.33 958,2417.5C 974.306,2428.97 990.473,2440.64 1006.5,2452.5C 980.216,2490.31 943.882,2507.81 897.5,2505C 846.719,2500.87 811.552,2475.37 792,2428.5C 790.203,2423.98 789.036,2419.31 788.5,2414.5C 788.975,2411.92 788.308,2409.92 786.5,2408.5C 779.192,2360.91 793.525,2321.41 829.5,2290C 868.475,2263.11 910.475,2257.44 955.5,2273C 975.197,2281.36 991.363,2294.19 1004,2311.5C 1004.68,2312.78 1004.52,2313.95 1003.5,2315C 987.833,2326.83 972.167,2338.67 956.5,2350.5C 950.629,2344.22 944.296,2338.39 937.5,2333C 911.197,2318.33 887.364,2321.5 866,2342.5C 863.946,2345.05 862.113,2347.71 860.5,2350.5 Z"/></g>
<g><path style="opacity:0.997" fill="#500d75" d="M 1732.5,2264.5 C 1776.71,2262.05 1813.21,2277.39 1842,2310.5C 1850.54,2321.25 1856.71,2333.25 1860.5,2346.5C 1860.32,2347.69 1859.99,2348.86 1859.5,2350C 1860.18,2351.68 1861.18,2351.85 1862.5,2350.5C 1874.22,2398.49 1862.55,2439.65 1827.5,2474C 1816,2484.08 1803,2491.58 1788.5,2496.5C 1784.9,2495.38 1781.9,2496.38 1779.5,2499.5C 1734.73,2511.78 1694.07,2503.61 1657.5,2475C 1622.46,2441.03 1610.63,2400.19 1622,2352.5C 1625.02,2340.9 1629.86,2330.23 1636.5,2320.5C 1637.15,2321.09 1637.82,2321.76 1638.5,2322.5C 1639.43,2320.91 1639.43,2319.24 1638.5,2317.5C 1658.89,2288.29 1686.89,2271.29 1722.5,2266.5C 1726.33,2267.07 1729.66,2266.4 1732.5,2264.5 Z M 1712.5,2438.5 C 1712.17,2437.5 1711.5,2436.83 1710.5,2436.5C 1690.23,2420.88 1681.73,2400.21 1685,2374.5C 1686.01,2369.44 1687.18,2364.44 1688.5,2359.5C 1690.74,2356.03 1692.74,2352.36 1694.5,2348.5C 1698.81,2342.19 1704.14,2336.86 1710.5,2332.5C 1711.71,2332.07 1712.71,2331.4 1713.5,2330.5C 1744.81,2316.46 1770.64,2323.12 1791,2350.5C 1804.46,2375.81 1803.46,2400.48 1788,2424.5C 1766.35,2447.86 1741.18,2452.53 1712.5,2438.5 Z"/></g>
<g><path style="opacity:0.997" fill="#500d75" d="M 2318.5,2274.5 C 2317.7,2275.42 2317.53,2276.42 2318,2277.5C 2319.89,2278.13 2321.56,2279.13 2323,2280.5C 2323.41,2280.04 2323.91,2279.71 2324.5,2279.5C 2326.73,2280.58 2329.06,2281.24 2331.5,2281.5C 2373.58,2306.65 2393.42,2343.99 2391,2393.5C 2385.85,2440.97 2361.69,2474.8 2318.5,2495C 2288.63,2506.74 2258.3,2508.24 2227.5,2499.5C 2227.67,2498.18 2227.34,2497.01 2226.5,2496C 2224.15,2495.67 2221.82,2495.83 2219.5,2496.5C 2209.74,2493.12 2200.74,2488.45 2192.5,2482.5C 2193.09,2481.85 2193.76,2481.18 2194.5,2480.5C 2192.91,2479.57 2191.24,2479.57 2189.5,2480.5C 2187.81,2479.14 2186.14,2477.8 2184.5,2476.5C 2184.51,2473.86 2183.18,2472.52 2180.5,2472.5C 2178.83,2471.5 2177.5,2470.17 2176.5,2468.5C 2176.51,2465.86 2175.18,2464.52 2172.5,2464.5C 2166.62,2459.06 2161.95,2452.73 2158.5,2445.5C 2158.71,2443.82 2158.05,2442.82 2156.5,2442.5C 2144.58,2419.97 2140.08,2395.97 2143,2370.5C 2149.74,2324.28 2174.57,2292.28 2217.5,2274.5C 2219.18,2274.71 2220.18,2274.05 2220.5,2272.5C 2253.43,2261.3 2286.1,2261.97 2318.5,2274.5 Z M 2325.5,2381.5 C 2325.74,2384.61 2325.4,2387.61 2324.5,2390.5C 2322.88,2413.1 2312.21,2429.76 2292.5,2440.5C 2291.29,2440.93 2290.29,2441.6 2289.5,2442.5C 2289.17,2442.5 2288.83,2442.5 2288.5,2442.5C 2287,2442.99 2285.67,2443.66 2284.5,2444.5C 2276.25,2446.05 2267.91,2446.72 2259.5,2446.5C 2257.29,2445.73 2254.95,2445.07 2252.5,2444.5C 2247.18,2443.28 2242.18,2441.28 2237.5,2438.5C 2236.71,2437.6 2235.71,2436.93 2234.5,2436.5C 2225.61,2429.95 2218.95,2421.61 2214.5,2411.5C 2213.15,2408.43 2211.82,2405.43 2210.5,2402.5C 2204.39,2374.15 2212.39,2350.82 2234.5,2332.5C 2235.71,2332.07 2236.71,2331.4 2237.5,2330.5C 2269.44,2316.36 2295.61,2323.36 2316,2351.5C 2321.12,2361.02 2324.29,2371.02 2325.5,2381.5 Z"/></g>
<g><path style="opacity:0.997" fill="#500d75" d="M 2668.5,2308.5 C 2667.31,2308.32 2666.14,2307.99 2665,2307.5C 2663.19,2308.42 2663.36,2309.26 2665.5,2310C 2664.44,2311.19 2663.1,2311.69 2661.5,2311.5C 2661.5,2312.83 2661.5,2314.17 2661.5,2315.5C 2650.5,2325.66 2639.34,2335.66 2628,2345.5C 2621.23,2338.88 2614.06,2332.88 2606.5,2327.5C 2605.77,2326.29 2605.43,2324.96 2605.5,2323.5C 2606.98,2323.76 2608.31,2323.43 2609.5,2322.5C 2607.5,2321.17 2605.83,2319.5 2604.5,2317.5C 2603.74,2318.63 2603.07,2319.79 2602.5,2321C 2599.83,2321.57 2597.17,2322.07 2594.5,2322.5C 2570.6,2315.98 2548.6,2319.82 2528.5,2334C 2509.35,2353.1 2502.85,2375.94 2509,2402.5C 2518.33,2433.27 2539.16,2449.27 2571.5,2450.5C 2583.58,2450.18 2595.08,2447.52 2606,2442.5C 2606.5,2421.5 2606.67,2400.5 2606.5,2379.5C 2625.83,2379.5 2645.17,2379.5 2664.5,2379.5C 2664.67,2411.84 2664.5,2444.17 2664,2476.5C 2661.95,2478.06 2659.78,2479.39 2657.5,2480.5C 2656.31,2480.32 2655.14,2479.99 2654,2479.5C 2653.5,2479.83 2653,2480.17 2652.5,2480.5C 2653.24,2481.18 2653.91,2481.85 2654.5,2482.5C 2614.45,2504.47 2572.11,2510.3 2527.5,2500C 2511.71,2495.44 2497.38,2488.27 2484.5,2478.5C 2485.04,2476.88 2485.37,2475.22 2485.5,2473.5C 2483.78,2473.63 2482.12,2473.96 2480.5,2474.5C 2464.21,2461.34 2452.71,2444.67 2446,2424.5C 2433.34,2381.76 2440.34,2342.76 2467,2307.5C 2469.37,2304.96 2471.87,2302.63 2474.5,2300.5C 2477.98,2299.3 2478.32,2300.13 2475.5,2303C 2475.83,2303.5 2476.17,2304 2476.5,2304.5C 2481.44,2303.55 2486.44,2303.22 2491.5,2303.5C 2491.5,2300.83 2491.5,2298.17 2491.5,2295.5C 2500.83,2296.54 2503.16,2293.21 2498.5,2285.5C 2495.19,2288.52 2493.85,2288.18 2494.5,2284.5C 2504.68,2277.91 2515.68,2273.24 2527.5,2270.5C 2529.78,2270.92 2531.45,2270.26 2532.5,2268.5C 2573.23,2259.39 2611.56,2265.22 2647.5,2286C 2655.82,2292.32 2663.48,2299.32 2670.5,2307C 2669.96,2307.72 2669.29,2308.22 2668.5,2308.5 Z"/></g>
<g><path style="opacity:0.529" fill="#461565" d="M 1732.5,2264.5 C 1729.66,2266.4 1726.33,2267.07 1722.5,2266.5C 1725.73,2265.76 1729.06,2265.1 1732.5,2264.5 Z"/></g>
<g><path style="opacity:1" fill="#461663" d="M 496.5,2270.5 C 429.167,2270.5 361.833,2270.5 294.5,2270.5C 294.5,2289.17 294.5,2307.83 294.5,2326.5C 293.503,2307.67 293.17,2288.67 293.5,2269.5C 361.335,2269.17 429.002,2269.5 496.5,2270.5 Z"/></g>
<g><path style="opacity:0.999" fill="#451662" d="M 1340.5,2270.5 C 1360.67,2269.17 1381,2269.17 1401.5,2270.5C 1401.86,2271.18 1402.2,2271.85 1402.5,2272.5C 1382,2270.55 1361.33,2269.88 1340.5,2270.5 Z"/></g>
<g><path style="opacity:0.876" fill="#471566" d="M 2532.5,2268.5 C 2531.45,2270.26 2529.78,2270.92 2527.5,2270.5C 2529.03,2269.69 2530.69,2269.02 2532.5,2268.5 Z"/></g>
<g><path style="opacity:1" fill="#461663" d="M 2866.5,2270.5 C 2890.34,2269.17 2914.34,2269.17 2938.5,2270.5C 2938.38,2271.11 2938.04,2271.44 2937.5,2271.5C 2914.01,2270.5 2890.34,2270.17 2866.5,2270.5 Z"/></g>
<g><path style="opacity:0.989" fill="#500d75" d="M 496.5,2270.5 C 496.5,2289.17 496.5,2307.83 496.5,2326.5C 473.5,2326.5 450.5,2326.5 427.5,2326.5C 427.5,2384.5 427.5,2442.5 427.5,2500.5C 405.833,2500.5 384.167,2500.5 362.5,2500.5C 362.5,2442.5 362.5,2384.5 362.5,2326.5C 339.833,2326.5 317.167,2326.5 294.5,2326.5C 294.5,2307.83 294.5,2289.17 294.5,2270.5C 361.833,2270.5 429.167,2270.5 496.5,2270.5 Z"/></g>
<g><path style="opacity:0.992" fill="#500d75" d="M 546.5,2269.5 C 608.5,2269.5 670.5,2269.5 732.5,2269.5C 732.5,2287.83 732.5,2306.17 732.5,2324.5C 670.5,2324.5 608.5,2324.5 546.5,2324.5C 546.5,2306.17 546.5,2287.83 546.5,2269.5 Z"/></g>
<g><path style="opacity:1" fill="#481564" d="M 1123.5,2355.5 C 1122.5,2327.34 1122.17,2299 1122.5,2270.5C 1101.83,2270.5 1081.17,2270.5 1060.5,2270.5C 1060.5,2347.17 1060.5,2423.83 1060.5,2500.5C 1059.5,2423.67 1059.17,2346.67 1059.5,2269.5C 1080.83,2269.5 1102.17,2269.5 1123.5,2269.5C 1123.5,2298.17 1123.5,2326.83 1123.5,2355.5 Z"/></g>
<g><path style="opacity:0.997" fill="#500d75" d="M 1123.5,2355.5 C 1150.5,2355.5 1177.5,2355.5 1204.5,2355.5C 1204.5,2327.17 1204.5,2298.83 1204.5,2270.5C 1224.83,2270.5 1245.17,2270.5 1265.5,2270.5C 1265.76,2277.75 1265.76,2285.09 1265.5,2292.5C 1264.88,2292.39 1264.38,2292.06 1264,2291.5C 1263.83,2358.87 1263.33,2426.21 1262.5,2493.5C 1262.98,2494.93 1263.64,2496.26 1264.5,2497.5C 1265.92,2497 1266.59,2496 1266.5,2494.5C 1267.5,2420 1267.83,2345.34 1267.5,2270.5C 1268.5,2347 1268.83,2423.66 1268.5,2500.5C 1247.17,2500.5 1225.83,2500.5 1204.5,2500.5C 1204.5,2471.17 1204.5,2441.83 1204.5,2412.5C 1177.5,2412.5 1150.5,2412.5 1123.5,2412.5C 1123.5,2441.83 1123.5,2471.17 1123.5,2500.5C 1102.5,2500.5 1081.5,2500.5 1060.5,2500.5C 1060.5,2423.83 1060.5,2347.17 1060.5,2270.5C 1081.17,2270.5 1101.83,2270.5 1122.5,2270.5C 1122.17,2299 1122.5,2327.34 1123.5,2355.5 Z"/></g>
<g><path style="opacity:0.992" fill="#500d75" d="M 1494.5,2490.5 C 1495.52,2488.74 1495.18,2487.08 1493.5,2485.5C 1493.83,2484.83 1494.17,2484.17 1494.5,2483.5C 1496.57,2484.61 1497.4,2483.94 1497,2481.5C 1495.65,2479.98 1494.15,2478.65 1492.5,2477.5C 1491.83,2478.83 1491.17,2480.17 1490.5,2481.5C 1489.26,2480.75 1487.93,2480.42 1486.5,2480.5C 1459.11,2446.08 1431.95,2411.42 1405,2376.5C 1404.5,2417.83 1404.33,2459.17 1404.5,2500.5C 1383.17,2500.5 1361.83,2500.5 1340.5,2500.5C 1340.5,2423.83 1340.5,2347.17 1340.5,2270.5C 1361.33,2269.88 1382,2270.55 1402.5,2272.5C 1433.14,2311.31 1463.64,2350.31 1494,2389.5C 1494.5,2349.5 1494.67,2309.5 1494.5,2269.5C 1515.83,2269.5 1537.17,2269.5 1558.5,2269.5C 1558.5,2346.5 1558.5,2423.5 1558.5,2500.5C 1539.5,2500.67 1520.5,2500.5 1501.5,2500C 1498.92,2496.94 1496.59,2493.77 1494.5,2490.5 Z"/></g>
<g><path style="opacity:0.997" fill="#500d75" d="M 1926.5,2270.5 C 1947.83,2270.5 1969.17,2270.5 1990.5,2270.5C 1990.17,2328.34 1990.5,2386 1991.5,2443.5C 2028.5,2443.5 2065.5,2443.5 2102.5,2443.5C 2102.5,2462.5 2102.5,2481.5 2102.5,2500.5C 2043.83,2500.5 1985.17,2500.5 1926.5,2500.5C 1926.5,2423.83 1926.5,2347.17 1926.5,2270.5 Z"/></g>
<g><path style="opacity:0.998" fill="#500d75" d="M 2784.5,2291.5 C 2784.29,2293.18 2784.95,2294.18 2786.5,2294.5C 2797.24,2313.64 2808.24,2332.64 2819.5,2351.5C 2834.94,2324.27 2850.61,2297.27 2866.5,2270.5C 2890.34,2270.17 2914.01,2270.5 2937.5,2271.5C 2909.52,2318.78 2881.02,2365.78 2852,2412.5C 2851.5,2441.83 2851.33,2471.16 2851.5,2500.5C 2829.83,2500.5 2808.17,2500.5 2786.5,2500.5C 2786.67,2471.5 2786.5,2442.5 2786,2413.5C 2782.56,2408.28 2779.39,2402.94 2776.5,2397.5C 2776.16,2394.44 2775.49,2391.44 2774.5,2388.5C 2773.82,2389.6 2773.16,2390.6 2772.5,2391.5C 2748.74,2353.08 2725.41,2314.41 2702.5,2275.5C 2702.71,2273.82 2702.05,2272.82 2700.5,2272.5C 2699.73,2271.83 2699.07,2270.99 2698.5,2270C 2723.17,2269.33 2747.83,2269.33 2772.5,2270C 2777.16,2276.82 2781.16,2283.98 2784.5,2291.5 Z"/></g>
<g><path style="opacity:1" fill="#520c74" d="M 1265.5,2270.5 C 1266.17,2270.5 1266.83,2270.5 1267.5,2270.5C 1267.83,2345.34 1267.5,2420 1266.5,2494.5C 1265.51,2427.21 1265.17,2359.87 1265.5,2292.5C 1265.76,2285.09 1265.76,2277.75 1265.5,2270.5 Z"/></g>
<g><path style="opacity:1" fill="#491369" d="M 2220.5,2272.5 C 2220.18,2274.05 2219.18,2274.71 2217.5,2274.5C 2218.29,2273.6 2219.29,2272.93 2220.5,2272.5 Z"/></g>
<g><path style="opacity:0.251" fill="#471567" d="M 2700.5,2272.5 C 2702.05,2272.82 2702.71,2273.82 2702.5,2275.5C 2701.6,2274.71 2700.93,2273.71 2700.5,2272.5 Z"/></g>
<g><path style="opacity:0.986" fill="#4c1070" d="M 2318.5,2274.5 C 2323.03,2276.6 2327.36,2278.93 2331.5,2281.5C 2329.06,2281.24 2326.73,2280.58 2324.5,2279.5C 2323.91,2279.71 2323.41,2280.04 2323,2280.5C 2321.56,2279.13 2319.89,2278.13 2318,2277.5C 2317.53,2276.42 2317.7,2275.42 2318.5,2274.5 Z"/></g>
<g><path style="opacity:0.999" fill="#510d74" d="M 2494.5,2284.5 C 2493.85,2288.18 2495.19,2288.52 2498.5,2285.5C 2503.16,2293.21 2500.83,2296.54 2491.5,2295.5C 2491.5,2298.17 2491.5,2300.83 2491.5,2303.5C 2486.44,2303.22 2481.44,2303.55 2476.5,2304.5C 2476.17,2304 2475.83,2303.5 2475.5,2303C 2478.32,2300.13 2477.98,2299.3 2474.5,2300.5C 2480.28,2294.06 2486.94,2288.72 2494.5,2284.5 Z"/></g>
<g><path style="opacity:1" fill="#500d78" d="M 1265.5,2292.5 C 1265.17,2359.87 1265.51,2427.21 1266.5,2494.5C 1266.59,2496 1265.92,2497 1264.5,2497.5C 1263.64,2496.26 1262.98,2494.93 1262.5,2493.5C 1263.33,2426.21 1263.83,2358.87 1264,2291.5C 1264.38,2292.06 1264.88,2292.39 1265.5,2292.5 Z"/></g>
<g><path style="opacity:0.753" fill="#461663" d="M 1204.5,2270.5 C 1225.99,2269.5 1247.66,2269.17 1269.5,2269.5C 1269.83,2346.67 1269.5,2423.67 1268.5,2500.5C 1268.83,2423.66 1268.5,2347 1267.5,2270.5C 1266.83,2270.5 1266.17,2270.5 1265.5,2270.5C 1245.17,2270.5 1224.83,2270.5 1204.5,2270.5 Z"/></g>
<g><path style="opacity:0.314" fill="#4a1368" d="M 2784.5,2291.5 C 2785.4,2292.29 2786.07,2293.29 2786.5,2294.5C 2784.95,2294.18 2784.29,2293.18 2784.5,2291.5 Z"/></g>
<g><path style="opacity:0.251" fill="#481563" d="M 1926.5,2270.5 C 1947.99,2269.5 1969.66,2269.17 1991.5,2269.5C 1991.5,2327.5 1991.5,2385.5 1991.5,2443.5C 1990.5,2386 1990.17,2328.34 1990.5,2270.5C 1969.17,2270.5 1947.83,2270.5 1926.5,2270.5 Z"/></g>
<g><path style="opacity:0.98" fill="#4f0f6d" d="M 2668.5,2308.5 C 2666.5,2311.17 2664.17,2313.5 2661.5,2315.5C 2661.5,2314.17 2661.5,2312.83 2661.5,2311.5C 2663.1,2311.69 2664.44,2311.19 2665.5,2310C 2663.36,2309.26 2663.19,2308.42 2665,2307.5C 2666.14,2307.99 2667.31,2308.32 2668.5,2308.5 Z"/></g>
<g><path style="opacity:1" fill="#510d72" d="M 2606.5,2327.5 C 2602.26,2326.2 2598.26,2324.54 2594.5,2322.5C 2597.17,2322.07 2599.83,2321.57 2602.5,2321C 2603.07,2319.79 2603.74,2318.63 2604.5,2317.5C 2605.83,2319.5 2607.5,2321.17 2609.5,2322.5C 2608.31,2323.43 2606.98,2323.76 2605.5,2323.5C 2605.43,2324.96 2605.77,2326.29 2606.5,2327.5 Z"/></g>
<g><path style="opacity:1" fill="#4c116c" d="M 1638.5,2317.5 C 1639.43,2319.24 1639.43,2320.91 1638.5,2322.5C 1637.82,2321.76 1637.15,2321.09 1636.5,2320.5C 1636.93,2319.29 1637.6,2318.29 1638.5,2317.5 Z"/></g>
<g><path style="opacity:0.816" fill="#4c1268" d="M 2237.5,2330.5 C 2236.71,2331.4 2235.71,2332.07 2234.5,2332.5C 2234.82,2330.95 2235.82,2330.29 2237.5,2330.5 Z"/></g>
<g><path style="opacity:0.188" fill="#4b1367" d="M 1713.5,2330.5 C 1712.71,2331.4 1711.71,2332.07 1710.5,2332.5C 1710.82,2330.95 1711.82,2330.29 1713.5,2330.5 Z"/></g>
<g><path style="opacity:1" fill="#500d78" d="M 423.5,2335.5 C 424.833,2361.66 425.5,2388.16 425.5,2415C 425.487,2442.53 425.154,2470.03 424.5,2497.5C 422.712,2497.79 421.045,2497.45 419.5,2496.5C 420.689,2495.57 422.022,2495.24 423.5,2495.5C 423.5,2442.17 423.5,2388.83 423.5,2335.5 Z"/></g>
<g><path style="opacity:1" fill="#4c126a" d="M 1860.5,2346.5 C 1861.34,2347.67 1862.01,2349 1862.5,2350.5C 1861.18,2351.85 1860.18,2351.68 1859.5,2350C 1859.99,2348.86 1860.32,2347.69 1860.5,2346.5 Z"/></g>
<g><path style="opacity:0.251" fill="#491467" d="M 860.5,2350.5 C 860.068,2351.71 859.401,2352.71 858.5,2353.5C 858.285,2351.82 858.952,2350.82 860.5,2350.5 Z"/></g>
<g><path style="opacity:1" fill="#500f70" d="M 1694.5,2348.5 C 1692.74,2352.36 1690.74,2356.03 1688.5,2359.5C 1688.18,2358.18 1687.85,2356.85 1687.5,2355.5C 1688.55,2353.94 1689.21,2352.28 1689.5,2350.5C 1690.55,2350.65 1691.55,2350.48 1692.5,2350C 1691.43,2347.57 1692.1,2347.07 1694.5,2348.5 Z"/></g>
<g><path style="opacity:0.986" fill="#500d75" d="M 546.5,2356.5 C 608.5,2356.5 670.5,2356.5 732.5,2356.5C 732.5,2374.83 732.5,2393.17 732.5,2411.5C 670.5,2411.5 608.5,2411.5 546.5,2411.5C 546.5,2393.17 546.5,2374.83 546.5,2356.5 Z"/></g>
<g><path style="opacity:1" fill="#491464" d="M 2325.5,2381.5 C 2326.16,2382.79 2326.49,2384.29 2326.5,2386C 2326.43,2387.99 2325.76,2389.49 2324.5,2390.5C 2325.4,2387.61 2325.74,2384.61 2325.5,2381.5 Z"/></g>
<g><path style="opacity:0.985" fill="#4f0f6e" d="M 2776.5,2397.5 C 2774.81,2395.8 2773.47,2393.8 2772.5,2391.5C 2773.16,2390.6 2773.82,2389.6 2774.5,2388.5C 2775.49,2391.44 2776.16,2394.44 2776.5,2397.5 Z"/></g>
<g><path style="opacity:1" fill="#4f0d78" d="M 563.5,2407.5 C 618.504,2407.17 673.504,2407.5 728.5,2408.5C 701,2408.83 673.5,2409.17 646,2409.5C 618.158,2409.5 590.658,2408.83 563.5,2407.5 Z"/></g>
<g><path style="opacity:0.876" fill="#471467" d="M 786.5,2408.5 C 788.308,2409.92 788.975,2411.92 788.5,2414.5C 787.715,2412.63 787.048,2410.63 786.5,2408.5 Z"/></g>
<g><path style="opacity:1" fill="#510d70" d="M 2210.5,2402.5 C 2211.82,2405.43 2213.15,2408.43 2214.5,2411.5C 2213.21,2412.79 2211.88,2414.12 2210.5,2415.5C 2207.83,2414.5 2207.83,2413.5 2210.5,2412.5C 2208.66,2408.9 2208.66,2405.56 2210.5,2402.5 Z"/></g>
<g><path style="opacity:0.251" fill="#481467" d="M 860.5,2419.5 C 861.401,2420.29 862.068,2421.29 862.5,2422.5C 860.952,2422.18 860.285,2421.18 860.5,2419.5 Z"/></g>
<g><path style="opacity:1" fill="#510d73" d="M 948.5,2428.5 C 949.344,2432.1 949.677,2435.77 949.5,2439.5C 942.122,2437.49 938.789,2440.16 939.5,2447.5C 937.143,2447.66 934.81,2447.5 932.5,2447C 933.949,2445.88 935.616,2445.22 937.5,2445C 936.833,2444.33 936.167,2443.67 935.5,2443C 936.731,2441.82 936.731,2440.65 935.5,2439.5C 934.583,2440.13 933.583,2440.46 932.5,2440.5C 938.092,2436.92 943.426,2432.92 948.5,2428.5 Z"/></g>
<g><path style="opacity:0.98" fill="#4e106c" d="M 1710.5,2436.5 C 1711.5,2436.83 1712.17,2437.5 1712.5,2438.5C 1708.76,2439.81 1708.09,2439.15 1710.5,2436.5 Z"/></g>
<g><path style="opacity:0.314" fill="#4a1368" d="M 2234.5,2436.5 C 2235.71,2436.93 2236.71,2437.6 2237.5,2438.5C 2235.82,2438.71 2234.82,2438.05 2234.5,2436.5 Z"/></g>
<g><path style="opacity:0.941" fill="#481369" d="M 2292.5,2440.5 C 2292.18,2442.05 2291.18,2442.71 2289.5,2442.5C 2290.29,2441.6 2291.29,2440.93 2292.5,2440.5 Z"/></g>
<g><path style="opacity:1" fill="#471469" d="M 2288.5,2442.5 C 2287.82,2444.18 2286.48,2444.84 2284.5,2444.5C 2285.67,2443.66 2287,2442.99 2288.5,2442.5 Z"/></g>
<g><path style="opacity:0.986" fill="#500d75" d="M 732.5,2498.5 C 730.654,2498.78 729.32,2498.11 728.5,2496.5C 670.504,2495.5 612.504,2495.17 554.5,2495.5C 555.449,2490.26 555.782,2484.93 555.5,2479.5C 556.833,2479.5 558.167,2479.5 559.5,2479.5C 559.5,2472.83 559.5,2466.17 559.5,2459.5C 556.881,2459.23 554.381,2459.56 552,2460.5C 551.189,2472.24 551.356,2483.91 552.5,2495.5C 550.988,2497.32 548.988,2498.32 546.5,2498.5C 546.5,2480.5 546.5,2462.5 546.5,2444.5C 608.5,2444.5 670.5,2444.5 732.5,2444.5C 732.5,2462.5 732.5,2480.5 732.5,2498.5 Z"/></g>
<g><path style="opacity:0.188" fill="#4b1267" d="M 2156.5,2442.5 C 2158.05,2442.82 2158.71,2443.82 2158.5,2445.5C 2157.6,2444.71 2156.93,2443.71 2156.5,2442.5 Z"/></g>
<g><path style="opacity:0.464" fill="#491468" d="M 2252.5,2444.5 C 2254.95,2445.07 2257.29,2445.73 2259.5,2446.5C 2256.61,2447.01 2254.28,2446.34 2252.5,2444.5 Z"/></g>
<g><path style="opacity:1" fill="#500d78" d="M 554.5,2495.5 C 553.833,2495.5 553.167,2495.5 552.5,2495.5C 551.356,2483.91 551.189,2472.24 552,2460.5C 554.381,2459.56 556.881,2459.23 559.5,2459.5C 559.5,2466.17 559.5,2472.83 559.5,2479.5C 558.167,2479.5 556.833,2479.5 555.5,2479.5C 555.782,2484.93 555.449,2490.26 554.5,2495.5 Z"/></g>
<g><path style="opacity:1" fill="#4f106c" d="M 2172.5,2464.5 C 2175.18,2464.52 2176.51,2465.86 2176.5,2468.5C 2174.83,2467.5 2173.5,2466.17 2172.5,2464.5 Z"/></g>
<g><path style="opacity:0.98" fill="#4f106c" d="M 2180.5,2472.5 C 2183.18,2472.52 2184.51,2473.86 2184.5,2476.5C 2182.83,2475.5 2181.5,2474.17 2180.5,2472.5 Z"/></g>
<g><path style="opacity:0.993" fill="#4d116c" d="M 2484.5,2478.5 C 2482.83,2477.5 2481.5,2476.17 2480.5,2474.5C 2482.12,2473.96 2483.78,2473.63 2485.5,2473.5C 2485.37,2475.22 2485.04,2476.88 2484.5,2478.5 Z"/></g>
<g><path style="opacity:1" fill="#4d116c" d="M 2192.5,2482.5 C 2191.29,2482.07 2190.29,2481.4 2189.5,2480.5C 2191.24,2479.57 2192.91,2479.57 2194.5,2480.5C 2193.76,2481.18 2193.09,2481.85 2192.5,2482.5 Z"/></g>
<g><path style="opacity:1" fill="#4d116b" d="M 2657.5,2480.5 C 2656.71,2481.4 2655.71,2482.07 2654.5,2482.5C 2653.91,2481.85 2653.24,2481.18 2652.5,2480.5C 2653,2480.17 2653.5,2479.83 2654,2479.5C 2655.14,2479.99 2656.31,2480.32 2657.5,2480.5 Z"/></g>
<g><path style="opacity:0.993" fill="#530c72" d="M 1494.5,2490.5 C 1491.48,2487.48 1488.82,2484.15 1486.5,2480.5C 1487.93,2480.42 1489.26,2480.75 1490.5,2481.5C 1491.17,2480.17 1491.83,2478.83 1492.5,2477.5C 1494.15,2478.65 1495.65,2479.98 1497,2481.5C 1497.4,2483.94 1496.57,2484.61 1494.5,2483.5C 1494.17,2484.17 1493.83,2484.83 1493.5,2485.5C 1495.18,2487.08 1495.52,2488.74 1494.5,2490.5 Z"/></g>
<g><path style="opacity:1" fill="#500f70" d="M 552.5,2495.5 C 553.167,2495.5 553.833,2495.5 554.5,2495.5C 612.504,2495.17 670.504,2495.5 728.5,2496.5C 729.32,2498.11 730.654,2498.78 732.5,2498.5C 670.5,2499.83 608.5,2499.83 546.5,2498.5C 548.988,2498.32 550.988,2497.32 552.5,2495.5 Z"/></g>
<g><path style="opacity:1" fill="#530c74" d="M 1359.5,2495.5 C 1372.5,2495.5 1385.5,2495.5 1398.5,2495.5C 1398.5,2496.5 1398.5,2497.5 1398.5,2498.5C 1387.16,2498.67 1375.83,2498.5 1364.5,2498C 1362.26,2497.95 1360.59,2497.12 1359.5,2495.5 Z"/></g>
<g><path style="opacity:1" fill="#4f106e" d="M 1788.5,2496.5 C 1785.78,2498.07 1782.78,2499.07 1779.5,2499.5C 1781.9,2496.38 1784.9,2495.38 1788.5,2496.5 Z"/></g>
<g><path style="opacity:1" fill="#500f6f" d="M 2227.5,2499.5 C 2224.6,2498.87 2221.94,2497.87 2219.5,2496.5C 2221.82,2495.83 2224.15,2495.67 2226.5,2496C 2227.34,2497.01 2227.67,2498.18 2227.5,2499.5 Z"/></g>
</svg>
