<?xml version="1.0" encoding="UTF-8"?>
<!DOCTYPE svg PUBLIC "-//W3C//DTD SVG 1.1//EN" "http://www.w3.org/Graphics/SVG/1.1/DTD/svg11.dtd">
<svg xmlns="http://www.w3.org/2000/svg" version="1.1" width="1307px" height="1287px" style="shape-rendering:geometricPrecision; text-rendering:geometricPrecision; image-rendering:optimizeQuality; fill-rule:evenodd; clip-rule:evenodd" xmlns:xlink="http://www.w3.org/1999/xlink">
<g><path style="opacity:0.985" fill="#500c74" d="M 610.5,78.5 C 639.833,78.5 669.167,78.5 698.5,78.5C 698.5,173.5 698.5,268.5 698.5,363.5C 669.167,363.5 639.833,363.5 610.5,363.5C 610.5,268.5 610.5,173.5 610.5,78.5 Z"/></g>
<g><path style="opacity:0.961" fill="#500d74" d="M 772.5,219.5 C 801.833,219.5 831.167,219.5 860.5,219.5C 860.5,267.5 860.5,315.5 860.5,363.5C 831.167,363.5 801.833,363.5 772.5,363.5C 772.5,315.5 772.5,267.5 772.5,219.5 Z"/></g>
<g><path style="opacity:0.969" fill="#500c74" d="M 448.5,219.5 C 477.833,219.5 507.167,219.5 536.5,219.5C 536.5,267.5 536.5,315.5 536.5,363.5C 507.167,363.5 477.833,363.5 448.5,363.5C 448.5,315.5 448.5,267.5 448.5,219.5 Z"/></g>
<g><path style="opacity:0.998" fill="#500d74" d="M 230.5,437.5 C 513.167,437.5 795.833,437.5 1078.5,437.5C 1078.5,466.833 1078.5,496.167 1078.5,525.5C 795.833,525.5 513.167,525.5 230.5,525.5C 230.5,496.167 230.5,466.833 230.5,437.5 Z"/></g>
<g><path style="opacity:0.11" fill="#49115a" d="M 1219.5,600.5 C 1219.17,600.5 1218.83,600.5 1218.5,600.5C 842.5,600.5 466.5,600.5 90.5,600.5C 90.5,628.833 90.5,657.167 90.5,685.5C 90.5,686.167 90.1667,686.5 89.5,686.5C 89.5,657.5 89.5,628.5 89.5,599.5C 466.334,599.167 843,599.5 1219.5,600.5 Z"/></g>
<g><path style="opacity:0.995" fill="#4f0d74" d="M 1218.5,600.5 C 1218.5,628.833 1218.5,657.167 1218.5,685.5C 842.5,685.5 466.5,685.5 90.5,685.5C 90.5,657.167 90.5,628.833 90.5,600.5C 466.5,600.5 842.5,600.5 1218.5,600.5 Z"/></g>
<g><path style="opacity:0.188" fill="#470b70" d="M 1218.5,600.5 C 1218.83,600.5 1219.17,600.5 1219.5,600.5C 1219.5,629.5 1219.5,658.5 1219.5,687.5C 842.666,687.833 466,687.5 89.5,686.5C 90.1667,686.5 90.5,686.167 90.5,685.5C 466.5,685.5 842.5,685.5 1218.5,685.5C 1218.5,657.167 1218.5,628.833 1218.5,600.5 Z"/></g>
<g><path style="opacity:0.995" fill="#4f0c75" d="M 230.5,761.5 C 513.167,761.5 795.833,761.5 1078.5,761.5C 1078.5,790.167 1078.5,818.833 1078.5,847.5C 795.836,849.159 513.17,849.826 230.5,849.5C 230.5,820.167 230.5,790.833 230.5,761.5 Z"/></g>
<g><path style="opacity:0.969" fill="#4f0c74" d="M 448.5,923.5 C 477.833,923.5 507.167,923.5 536.5,923.5C 536.5,971.5 536.5,1019.5 536.5,1067.5C 507.167,1067.5 477.833,1067.5 448.5,1067.5C 448.5,1019.5 448.5,971.5 448.5,923.5 Z"/></g>
<g><path style="opacity:0.986" fill="#500c74" d="M 632.5,923.5 C 654.5,923.5 676.5,923.5 698.5,923.5C 698.5,1018.5 698.5,1113.5 698.5,1208.5C 669.167,1208.5 639.833,1208.5 610.5,1208.5C 610.5,1113.83 610.5,1019.17 610.5,924.5C 618.019,924.825 625.352,924.492 632.5,923.5 Z"/></g>
<g><path style="opacity:0.961" fill="#500d74" d="M 772.5,923.5 C 801.833,923.5 831.167,923.5 860.5,923.5C 860.5,971.5 860.5,1019.5 860.5,1067.5C 831.167,1067.5 801.833,1067.5 772.5,1067.5C 772.5,1019.5 772.5,971.5 772.5,923.5 Z"/></g>
</svg>
